<?xml version="1.0" standalone="no"?>
<!DOCTYPE svg PUBLIC "-//W3C//DTD SVG 20010904//EN"
 "http://www.w3.org/TR/2001/REC-SVG-20010904/DTD/svg10.dtd">
<svg version="1.0" xmlns="http://www.w3.org/2000/svg"
 width="231.000000pt" height="347.000000pt" viewBox="0 0 231.000000 347.000000"
 preserveAspectRatio="xMidYMid meet">

<g transform="translate(0.000000,347.000000) scale(0.100000,-0.100000)"
fill="#000000" stroke="none">
<path d="M977 3454 c-4 -4 -7 -33 -7 -65 0 -32 -5 -61 -11 -65 -13 -8 -148 -7
-225 2 l-52 6 -8 -73 -9 -74 -66 3 -66 4 -6 -39 c-4 -21 -7 -53 -7 -71 l0 -33
-67 2 c-49 2 -69 -1 -74 -12 -13 -24 -25 -400 -14 -409 6 -5 38 -10 70 -12
l60 -3 3 -37 c2 -20 -1 -51 -5 -69 l-9 -32 -65 2 -66 2 -6 -53 c-11 -90 -15
-85 63 -93 l70 -7 0 -69 0 -69 -75 0 -75 0 0 -69 0 -68 70 -7 70 -7 -5 -112
c-3 -62 -11 -156 -17 -209 l-10 -98 -63 0 -63 0 -4 -66 c-1 -36 -1 -68 1 -70
2 -2 33 -4 67 -4 l63 0 3 63 3 62 73 3 72 3 0 -75 0 -74 138 -6 c75 -3 170 -9
211 -14 l74 -7 -2 -175 c-1 -96 -4 -189 -7 -206 -6 -31 -5 -32 38 -38 23 -3
86 -6 138 -7 l95 -2 3 34 c2 19 8 113 15 209 l12 175 30 -1 c17 0 114 -4 218
-8 l187 -8 0 71 0 71 38 0 c20 0 54 -3 75 -6 37 -7 37 -7 37 -53 0 -88 -3 -91
-81 -91 l-69 0 0 -32 c0 -18 -3 -50 -6 -71 l-7 -38 -142 7 -142 7 -6 -134 c-3
-74 -4 -135 -2 -137 6 -6 40 -10 88 -11 l48 -1 -7 -143 c-4 -78 -8 -144 -10
-146 -5 -5 -275 -2 -284 4 -4 2 -5 35 -2 73 l4 69 -77 6 c-43 4 -107 7 -142 7
l-63 0 0 -135 c0 -112 -3 -137 -15 -141 -8 -4 -75 -2 -148 2 l-132 9 -3 142
-3 142 -62 3 -62 3 -3 49 c-2 27 0 61 3 74 l6 25 138 -5 139 -5 7 134 c4 74 5
136 3 138 -2 2 -64 8 -138 12 l-135 8 -3 72 -3 71 -62 4 c-34 2 -63 3 -64 3
-1 -1 -6 -34 -9 -74 l-7 -72 -143 7 -144 7 0 -66 0 -66 68 -3 67 -3 -3 -71 -4
-71 39 -6 c21 -4 53 -7 71 -7 l32 0 -1 -87 c-1 -49 -4 -113 -7 -143 l-7 -55
-70 0 -70 0 -3 -67 -3 -67 -72 -3 -72 -3 -8 -134 c-7 -107 -6 -136 5 -142 7
-5 39 -9 70 -9 l57 0 3 -72 3 -73 130 -6 c72 -4 133 -7 138 -8 4 0 7 -32 7
-70 l0 -69 72 -6 c154 -12 199 -12 208 -1 5 6 10 38 12 70 l3 60 70 0 70 0 7
139 c4 76 9 141 12 143 2 2 95 -1 206 -7 111 -5 206 -7 211 -4 5 3 9 34 9 70
l0 65 73 -3 72 -3 0 -70 0 -70 50 -3 c95 -5 93 -3 87 -80 l-4 -69 68 -6 c38
-4 104 -7 146 -7 l77 0 3 68 3 67 70 0 70 0 6 110 c4 61 10 190 14 287 l8 177
-69 3 -69 3 0 70 0 70 -70 5 -70 5 0 70 0 70 141 -2 141 -2 7 37 c14 88 14 89
-64 96 -43 5 -70 12 -71 19 0 7 0 40 1 73 l1 62 -60 7 -61 7 -1 76 c-1 142 1
237 7 290 l6 52 69 0 69 0 2 50 c1 28 2 58 2 67 1 14 -12 20 -69 28 -57 8 -70
13 -69 28 0 9 1 40 2 68 l2 50 63 -2 c35 -1 69 1 75 5 7 4 12 33 12 72 l0 64
-57 0 c-80 0 -85 5 -81 81 l3 64 70 0 70 0 6 110 c4 61 8 155 10 210 l4 100
-69 10 -70 10 3 66 2 66 -38 6 c-21 4 -53 7 -70 7 l-33 0 0 69 0 68 -37 7
c-21 3 -77 6 -125 6 -119 0 -118 -1 -118 80 l0 68 -82 6 c-46 3 -150 8 -233
11 -82 3 -170 8 -195 11 -25 3 -49 2 -53 -2z m372 -160 l54 -6 -5 -63 -6 -63
69 -6 c38 -4 71 -12 75 -17 3 -5 2 -39 -2 -75 l-7 -66 -101 6 c-55 4 -184 11
-285 15 -101 5 -187 13 -191 18 -4 4 -5 37 -1 73 l6 65 70 0 70 0 3 55 c1 30
4 60 6 66 4 12 123 10 245 -2z m-60 -1004 c107 -5 196 -11 198 -13 1 -2 0 -32
-4 -66 l-6 -63 -71 4 -71 3 -6 -70 c-4 -38 -4 -73 0 -77 3 -3 37 -8 76 -10 66
-3 69 -2 76 22 4 14 7 46 8 73 1 52 1 52 90 39 l45 -7 -3 -67 c-2 -51 1 -68
11 -69 7 -1 18 -2 23 -4 6 -1 29 -3 53 -3 l42 -2 0 -65 0 -65 -70 0 -70 0 0
-52 c0 -93 -1 -94 -83 -94 l-72 1 -5 -65 -5 -65 -75 3 c-41 2 -149 7 -240 13
-91 5 -182 9 -204 9 l-38 0 3 68 4 67 -72 3 -72 3 -3 77 -3 77 -63 3 -63 3 3
67 3 67 67 -3 67 -4 3 69 3 68 69 3 68 3 -3 -73 -4 -73 69 -5 c91 -7 98 -1 94
80 l-3 65 -40 3 c-22 1 -55 5 -72 8 -33 5 -33 5 -33 63 0 32 3 61 7 65 4 3 45
4 92 1 47 -3 173 -10 280 -15z m-568 -550 c17 0 19 -8 19 -64 0 -36 -5 -68
-11 -71 -5 -4 -37 -4 -70 0 l-59 7 0 62 c0 35 3 66 8 70 4 4 27 5 51 2 24 -3
52 -6 62 -6z m1016 -48 c7 -5 9 -29 6 -75 l-6 -69 -30 6 c-16 3 -47 6 -68 6
-39 0 -39 0 -39 39 0 21 3 53 6 70 6 30 8 31 63 31 31 0 61 -4 68 -8z m-1082
-927 c6 -2 -14 -4 -43 -4 -29 -1 -51 3 -48 7 4 7 67 5 91 -3z m-251 -172 c-1
-7 -2 -38 -2 -68 l-2 -56 -72 3 -73 3 4 65 c2 36 4 67 6 70 2 3 34 3 72 0 46
-3 68 -9 67 -17z m996 -7 c0 -11 -19 -15 -25 -6 -3 5 1 10 9 10 9 0 16 -2 16
-4z"/>
<path d="M865 1900 c3 -5 8 -10 11 -10 2 0 4 5 4 10 0 6 -5 10 -11 10 -5 0 -7
-4 -4 -10z"/>
<path d="M185 1910 c-5 -92 -11 -140 -19 -141 -6 0 -39 0 -72 1 l-62 1 -7
-178 c-4 -98 -7 -191 -8 -208 -2 -30 -2 -30 59 -33 l61 -3 7 32 c3 17 6 64 6
103 0 39 3 88 6 109 l7 37 73 0 74 0 0 48 c0 26 1 119 3 207 l2 160 -62 3 -61
3 -7 -141z"/>
<path d="M2056 1948 c-3 -7 -7 -58 -10 -113 -3 -55 -9 -144 -12 -197 l-7 -98
70 0 71 0 7 188 c4 103 8 196 8 207 2 18 -5 20 -61 23 -44 2 -63 -1 -66 -10z"/>
<path d="M2165 1226 c-2 -6 -6 -68 -10 -138 l-7 -128 65 0 65 0 6 53 c10 86
10 211 0 213 -38 10 -116 10 -119 0z"/>
<path d="M850 946 l0 -64 63 -4 c34 -2 65 -2 70 0 4 2 7 32 7 68 l0 64 -70 0
-70 0 0 -64z"/>
<path d="M1286 953 c-14 -88 -13 -90 57 -95 34 -3 65 -3 70 -1 4 2 7 33 7 69
l0 64 -64 0 -63 0 -7 -37z"/>
</g>
</svg>
