<?xml version="1.0" standalone="no"?>
<!DOCTYPE svg PUBLIC "-//W3C//DTD SVG 20010904//EN"
 "http://www.w3.org/TR/2001/REC-SVG-20010904/DTD/svg10.dtd">
<svg version="1.0" xmlns="http://www.w3.org/2000/svg"
 width="636.000000pt" height="361.000000pt" viewBox="0 0 636.000000 361.000000"
 preserveAspectRatio="xMidYMid meet">

<g transform="translate(0.000000,361.000000) scale(0.100000,-0.100000)"
fill="#000000" stroke="none">
<path d="M0 1805 l0 -1805 3180 0 3180 0 0 1805 0 1805 -3180 0 -3180 0 0
-1805z m6348 1648 l3 -123 -60 0 c-61 0 -116 20 -116 42 0 10 -69 14 -315 16
l-314 2 -22 -27 -22 -28 -359 -3 c-369 -3 -389 -1 -420 38 -10 13 -58 15 -310
17 -164 2 -306 0 -315 -3 -10 -3 -18 -13 -18 -23 0 -10 -6 -19 -12 -20 -7 -1
-179 -5 -382 -7 -204 -2 -371 -6 -373 -8 -2 -1 -4 -153 -4 -337 l0 -334 1520
-3 1521 -2 0 -785 c0 -432 -4 -784 -8 -784 -38 6 -42 -1 -42 -71 0 -68 -1 -70
-25 -70 -14 0 -24 -3 -24 -7 4 -23 -3 -33 -24 -33 -18 0 -23 -5 -23 -22 1 -21
-3 -23 -54 -23 -52 -1 -55 -2 -58 -28 -3 -27 -3 -27 56 -27 55 0 60 2 66 25 4
16 13 25 26 25 13 0 20 7 20 19 0 13 8 21 23 23 14 2 23 11 25 25 2 15 10 23
23 23 18 0 19 -10 19 -250 l0 -250 -45 0 -45 0 0 -199 c0 -110 -4 -202 -9
-205 -5 -4 -16 -3 -25 0 -13 5 -15 32 -15 191 0 102 3 191 6 199 3 8 14 14 24
14 12 0 19 7 19 20 0 17 -7 20 -45 20 -38 0 -45 -3 -45 -20 0 -18 -7 -20 -89
-20 l-88 0 -5 -85 c-5 -90 -8 -101 -33 -92 -12 5 -15 24 -15 87 0 77 1 81 25
90 32 12 32 28 0 40 -15 6 -25 17 -25 29 0 10 -9 21 -20 24 -16 4 -20 14 -20
46 l0 41 45 0 c41 0 45 2 45 24 0 27 -16 36 -66 36 -29 0 -34 -3 -34 -24 0
-18 -6 -25 -22 -28 -20 -3 -23 -9 -23 -53 0 -44 3 -50 21 -53 16 -2 23 -12 27
-35 2 -18 3 -35 0 -39 -2 -5 -83 -8 -179 -8 l-174 0 0 -199 c0 -173 -2 -200
-16 -205 -9 -3 -20 -4 -25 0 -5 3 -9 95 -9 205 0 192 1 199 20 199 15 0 20 7
20 25 0 22 -4 25 -39 25 -33 0 -40 -4 -43 -22 -3 -21 -9 -23 -93 -28 l-90 -5
-3 -88 c-3 -79 -5 -87 -22 -87 -18 0 -20 7 -20 90 0 83 1 90 20 90 15 0 20 7
20 25 0 23 -4 25 -45 25 -41 0 -45 -2 -45 -25 l0 -25 -180 0 -180 0 -2 -203
c-3 -172 -5 -202 -18 -202 -18 0 -27 135 -21 302 3 89 5 102 22 106 11 3 19
14 19 26 0 18 -6 21 -45 21 -41 0 -45 -2 -45 -25 0 -25 -1 -25 -90 -25 l-90 0
0 -90 c0 -83 -1 -90 -20 -90 -19 0 -20 7 -20 90 0 83 1 90 20 90 15 0 20 7 20
25 0 23 -4 25 -45 25 -41 0 -45 -2 -45 -25 l0 -25 -180 0 -180 0 -2 -202 c-3
-195 -4 -203 -23 -203 -19 0 -20 8 -23 203 -2 197 -2 202 18 202 15 0 20 7 20
25 0 22 -4 25 -39 25 -33 0 -40 -4 -43 -22 -3 -22 -8 -23 -90 -26 -88 -3 -88
-3 -90 -30 0 -15 -2 -43 -3 -62 -2 -19 -3 -47 -4 -62 -1 -21 -6 -28 -21 -28
-19 0 -20 7 -20 90 0 83 1 90 20 90 15 0 20 7 20 25 0 23 -4 25 -45 25 -41 0
-45 -2 -45 -25 l0 -25 -180 0 -180 0 0 -199 c0 -166 -2 -200 -15 -204 -8 -4
-16 -3 -19 1 -5 9 -8 124 -7 295 1 100 2 107 21 107 15 0 20 7 20 25 0 23 -4
25 -45 25 -41 0 -45 -2 -45 -25 0 -25 -1 -25 -90 -25 l-90 0 0 -91 c0 -88 -1
-90 -22 -87 -22 3 -23 7 -23 88 0 81 1 85 23 88 16 3 22 10 22 28 0 22 -4 24
-45 24 -41 0 -45 -2 -45 -25 l0 -25 -180 0 -180 0 -2 -202 c-3 -195 -4 -203
-23 -203 -19 0 -20 7 -20 200 0 200 0 200 23 203 13 2 22 10 22 22 0 11 10 20
25 24 22 6 25 12 25 51 0 24 -4 46 -8 49 -5 3 -26 2 -47 -1 -26 -4 -39 -12
-43 -25 -2 -11 -15 -24 -28 -29 -13 -4 -24 -15 -24 -24 0 -8 -9 -15 -20 -15
-15 0 -20 -7 -20 -25 0 -23 -4 -25 -45 -25 l-45 0 0 45 c0 38 -3 45 -19 45
-13 0 -21 8 -23 23 -2 18 -10 23 -45 25 -38 3 -43 6 -43 27 0 21 3 23 29 15
22 -6 59 0 146 26 100 28 124 32 159 24 22 -5 67 -10 99 -10 51 0 60 3 64 20
3 11 11 20 19 20 7 0 19 8 26 18 7 10 40 27 73 38 36 12 60 26 61 34 0 8 4 49
9 90 4 41 9 91 10 110 2 19 6 71 10 115 4 44 8 103 10 130 1 28 3 50 5 50 2 0
4 29 6 65 5 91 12 185 15 185 4 0 17 175 21 275 0 8 4 20 8 25 4 6 6 31 5 57
-1 26 1 45 5 43 3 -2 7 20 7 48 1 29 5 86 8 127 4 41 7 102 7 135 l1 60 -752
3 -752 2 5 -32 c5 -34 12 -107 21 -233 3 -38 10 -115 16 -170 5 -55 12 -129
15 -165 2 -36 6 -84 9 -107 2 -23 7 -79 10 -125 3 -46 8 -102 11 -125 3 -27 1
-43 -5 -43 -6 0 -11 9 -11 20 0 13 -7 20 -20 20 -11 1 -75 1 -142 1 -116 0
-123 -1 -126 -20 -3 -18 -12 -20 -70 -23 -61 -3 -67 -5 -70 -26 -3 -20 -9 -23
-35 -21 -38 4 -60 -8 -53 -27 4 -9 -2 -14 -15 -14 -11 0 -27 -7 -35 -15 -9 -8
-11 -15 -5 -15 6 0 11 -5 11 -10 0 -6 -3 -9 -7 -9 -22 4 -33 -3 -33 -20 0 -13
-8 -21 -22 -23 -15 -2 -24 -11 -26 -26 -2 -14 -10 -22 -23 -22 -14 0 -19 -7
-19 -26 0 -20 -4 -25 -22 -22 -17 2 -24 -3 -26 -19 -2 -14 -11 -23 -25 -25
-12 -2 -23 -9 -23 -15 -1 -7 -2 -17 -3 -23 0 -5 -10 -10 -21 -10 -13 0 -20 -7
-20 -20 0 -15 -7 -20 -25 -20 -20 0 -25 -5 -25 -25 0 -18 -5 -25 -20 -25 -13
0 -20 -7 -20 -19 0 -13 -8 -21 -22 -23 -12 -2 -25 -12 -28 -23 -3 -11 -12 -20
-20 -20 -8 0 -16 -10 -18 -22 -2 -14 -11 -23 -25 -25 -14 -2 -23 -11 -25 -26
-3 -18 -8 -23 -23 -19 -14 4 -21 -1 -25 -19 -4 -14 -13 -24 -24 -24 -12 0 -20
-9 -22 -22 -2 -15 -10 -23 -23 -23 -13 0 -21 -8 -23 -22 -2 -15 -10 -23 -23
-23 -14 0 -19 -7 -19 -25 0 -15 -6 -25 -14 -25 -8 0 -16 -10 -18 -22 -3 -22
-8 -23 -95 -26 l-93 -3 0 -89 c0 -83 -1 -90 -20 -90 -18 0 -20 7 -20 89 0 80
2 89 20 94 12 3 20 14 20 26 0 18 -6 21 -45 21 -41 0 -45 -2 -45 -25 0 -23 -4
-25 -46 -25 l-45 0 3 38 c2 30 7 38 26 40 22 3 23 7 20 80 -3 71 -5 77 -25 80
l-23 3 0 1450 0 1449 3168 -2 3167 -3 3 -122z m-1633 -433 l0 -315 -315 0
-315 0 -3 305 c-1 168 0 311 3 318 3 10 71 12 317 10 l313 -3 0 -315z m1450 0
l0 -315 -315 0 -315 0 -2 309 c-1 170 0 313 3 318 3 4 146 7 317 6 l312 -3 0
-315z m-3778 -967 c-2 -21 -4 -4 -4 37 0 41 2 58 4 38 2 -21 2 -55 0 -75z
m530 -30 c-2 -16 -4 -5 -4 22 0 28 2 40 4 28 2 -13 2 -35 0 -50z m-107 -26 c0
-4 5 -5 12 -1 8 5 9 0 4 -17 -4 -13 -9 -46 -11 -72 -3 -43 -1 -47 16 -42 11 4
19 2 19 -4 0 -6 -7 -11 -15 -11 -8 0 -15 -4 -15 -10 0 -5 -9 -19 -20 -30 -12
-12 -15 -20 -7 -20 8 0 7 -4 -3 -10 -18 -12 -31 -13 -27 -2 1 4 -2 7 -8 7 -5
0 -9 -3 -7 -7 4 -15 -16 -8 -22 7 -5 13 -50 15 -327 15 l-322 0 7 -61 c3 -34
6 -75 6 -90 l0 -29 313 1 c267 2 296 3 202 11 -60 5 -138 7 -172 5 -35 -1 -63
1 -63 5 0 4 80 9 178 10 143 1 160 3 92 8 l-85 6 75 2 c79 2 120 -5 120 -19 0
-5 -8 -9 -17 -10 -10 -1 1 -5 25 -11 29 -6 42 -14 42 -26 0 -15 -2 -15 -10 -2
-7 10 -9 -6 -6 -55 4 -55 3 -62 -4 -30 -8 38 -8 37 -4 -10 3 -27 5 -69 5 -93
0 -23 3 -41 7 -38 4 2 7 -26 8 -63 0 -36 -2 -56 -4 -43 -2 14 -10 22 -24 22
-17 0 -20 -5 -15 -32 3 -18 1 -55 -4 -83 -5 -27 -10 -72 -12 -99 l-3 -50 -83
-23 c-46 -12 -89 -20 -94 -16 -6 3 -7 1 -3 -6 6 -8 0 -10 -18 -5 -16 4 -26 2
-26 -5 0 -6 -8 -11 -18 -11 -10 0 -23 -5 -30 -12 -6 -6 -31 -13 -54 -15 -24
-1 -50 -3 -58 -4 -8 -1 -53 10 -100 24 -47 13 -130 37 -185 52 -55 15 -104 31
-108 35 -9 8 -37 280 -30 293 2 4 46 7 98 7 l93 0 7 -74 7 -74 98 -27 c87 -24
101 -25 139 -14 42 12 42 13 19 26 l-23 14 27 -5 c14 -3 34 -9 45 -12 12 -4
14 -3 5 3 -9 7 -6 13 12 23 16 8 26 24 29 44 3 24 4 21 3 -9 0 -22 -5 -44 -11
-48 -5 -5 3 -6 20 -2 16 4 31 8 33 10 4 3 11 76 16 153 l4 62 -77 1 c-42 1
-184 4 -316 8 l-240 6 -25 280 -25 280 330 7 c181 4 380 9 440 10 169 5 175 4
175 -5z m63 5 c-6 -4 -13 -21 -16 -37 -4 -27 -4 -27 -6 8 -1 29 3 37 17 37 11
0 13 -3 5 -8z m23 -108 l2 -39 -7 37 c-5 30 -9 36 -21 28 -20 -13 -27 -12 -33
3 -3 8 6 12 27 11 29 -1 31 -3 32 -40z m-16 -39 c0 -8 -4 -15 -10 -15 -5 0 -7
7 -4 15 4 8 8 15 10 15 2 0 4 -7 4 -15z m-247 -72 c-51 -2 -136 -2 -190 0 -54
1 -12 3 92 3 105 0 149 -2 98 -3z m237 -33 c0 -16 -7 -20 -32 -20 l-33 0 30
20 c37 24 35 24 35 0z m-483 -32 c-3 -8 -6 -5 -6 6 -1 11 2 17 5 13 3 -3 4
-12 1 -19z m393 -38 c12 -8 11 -10 -7 -10 -12 0 -25 5 -28 10 -8 13 15 13 35
0z m-382 -17 c-10 -2 -26 -2 -35 0 -10 3 -2 5 17 5 19 0 27 -2 18 -5z m449
-165 c-3 -8 -6 -5 -6 6 -1 11 2 17 5 13 3 -3 4 -12 1 -19z m10 -80 c-2 -13 -4
-3 -4 22 0 25 2 35 4 23 2 -13 2 -33 0 -45z m-410 -25 c-20 -2 -52 -2 -70 0
-17 2 0 4 38 4 39 0 53 -2 32 -4z m413 -32 c0 -11 -4 -23 -10 -26 -6 -4 -10 5
-10 19 0 14 5 26 10 26 6 0 10 -9 10 -19z m-468 -99 c2 -34 0 -62 -4 -62 -5 0
-7 39 -7 88 2 91 6 81 11 -26z m117 56 c-1 -45 -2 -49 -9 -23 -5 18 -8 23 -9
11 0 -11 -3 -17 -6 -15 -7 8 7 79 16 79 5 0 8 -24 8 -52z m338 -40 c-3 -7 -5
-2 -5 12 0 14 2 19 5 13 2 -7 2 -19 0 -25z m-411 -32 c0 -19 -4 -32 -8 -30 -4
3 -8 18 -8 35 0 16 4 29 8 29 4 0 8 -15 8 -34z m345 -57 c-5 -26 -9 -34 -10
-19 -1 27 9 73 15 67 2 -2 0 -23 -5 -48z m62 1 c-3 -11 -7 -20 -9 -20 -2 0 -4
9 -4 20 0 11 4 20 9 20 5 0 7 -9 4 -20z m-476 -26 c-3 -3 -12 -4 -19 -1 -8 3
-5 6 6 6 11 1 17 -2 13 -5z m424 -92 c-5 -10 -7 -28 -4 -40 3 -15 1 -22 -8
-22 -11 0 -13 13 -10 51 2 35 6 47 12 38 6 -9 9 1 11 31 l1 45 4 -42 c2 -23 0
-51 -6 -61z m49 48 c0 -5 -2 -10 -4 -10 -3 0 -8 5 -11 10 -3 6 -1 10 4 10 6 0
11 -4 11 -10z m-130 -120 c-8 -5 -24 -9 -35 -9 -16 1 -16 2 5 9 35 11 48 11
30 0z m27 -22 c-3 -8 -6 -5 -6 6 -1 11 2 17 5 13 3 -3 4 -12 1 -19z m-17 2 c0
-5 -5 -10 -11 -10 -5 0 -7 5 -4 10 3 6 8 10 11 10 2 0 4 -4 4 -10z m-37 -7
c-7 -2 -19 -2 -25 0 -7 3 -2 5 12 5 14 0 19 -2 13 -5z m37 -32 c0 -21 -31 -33
-51 -20 -11 7 -10 9 4 9 10 0 20 7 23 15 9 21 24 19 24 -4z m-321 -24 c-9 -7
-14 -17 -12 -24 3 -9 -2 -9 -21 0 -23 11 -24 12 -6 15 11 2 20 8 20 13 0 5 8
9 18 9 15 -1 15 -2 1 -13z m37 -12 c-36 -19 -42 -19 -26 0 7 8 22 15 34 15 18
0 17 -2 -8 -15z m147 -15 c11 0 18 -3 14 -6 -11 -11 -58 6 -51 18 6 9 9 9 12
0 2 -7 13 -12 25 -12z m90 -7 c-7 -2 -19 -2 -25 0 -7 3 -2 5 12 5 14 0 19 -2
13 -5z m80 0 c-7 -2 -19 -2 -25 0 -7 3 -2 5 12 5 14 0 19 -2 13 -5z m52 -3
c-3 -5 -12 -10 -18 -10 -7 0 -6 4 3 10 19 12 23 12 15 0z m-180 -20 c-28 -12
-67 -12 -60 0 3 6 23 10 43 9 30 0 33 -2 17 -9z m98 3 c-7 -2 -19 -2 -25 0 -7
3 -2 5 12 5 14 0 19 -2 13 -5z m-336 -35 c-3 -7 -5 -2 -5 12 0 14 2 19 5 13 2
-7 2 -19 0 -25z m0 -24 c-3 -3 -12 -4 -19 -1 -8 3 -5 6 6 6 11 1 17 -2 13 -5z
m-1567 -339 l0 -25 -175 0 -175 0 0 -77 c-1 -271 -3 -318 -14 -325 -34 -23
-36 -11 -36 197 0 177 2 205 15 205 9 0 20 11 25 25 l10 25 175 0 175 0 0 -25z
m280 0 c0 -25 -1 -25 -90 -25 l-90 0 0 -52 c0 -88 -10 -128 -31 -128 -17 0
-19 9 -19 90 0 83 1 90 20 90 13 0 20 7 20 18 0 29 8 32 102 32 87 0 88 0 88
-25z m448 3 c-3 -23 -5 -23 -180 -26 l-178 -2 -2 -203 c-3 -194 -4 -202 -23
-202 -19 0 -20 8 -23 202 l-2 202 22 3 c15 2 24 11 26 26 3 22 4 22 183 22
l180 0 -3 -22z m272 -3 c0 -25 -1 -25 -90 -25 l-90 0 0 -90 c0 -83 -1 -90 -20
-90 -18 0 -20 7 -20 89 0 80 2 89 20 94 12 3 20 14 20 26 0 20 5 21 90 21 89
0 90 0 90 -25z m329 19 c21 -5 31 -12 31 -25 0 -18 -10 -19 -135 -19 l-135 0
0 -206 c0 -190 -1 -205 -17 -202 -15 3 -19 18 -23 103 -3 55 -3 146 -2 203 4
93 6 102 23 102 14 0 19 7 19 25 l0 25 104 0 c57 0 118 -3 135 -6z m219 -94
c2 -25 1 -64 -3 -87 -5 -34 -10 -43 -26 -43 -17 0 -19 8 -19 91 0 88 1 90 23
87 18 -2 23 -10 25 -48z m-2077 -180 c72 0 79 -2 79 -20 0 -19 -7 -20 -90 -20
l-90 0 0 -69 0 -69 -41 -7 c-22 -4 -43 -4 -46 -1 -4 3 6 6 20 6 l27 0 0 96 0
97 31 -7 c17 -3 67 -6 110 -6z m730 0 c72 0 79 -2 79 -20 0 -19 -7 -20 -90
-20 l-90 0 0 -69 0 -68 -41 -7 c-23 -4 -44 -4 -47 -1 -3 3 4 5 16 5 21 0 22 4
22 88 0 49 3 92 7 96 5 4 21 5 37 2 16 -3 64 -6 107 -6z m720 0 c72 0 79 -2
79 -20 0 -19 -7 -20 -90 -20 l-90 0 0 -69 0 -69 -41 -7 c-22 -4 -43 -4 -46 -1
-4 3 6 6 20 6 l27 0 0 96 0 97 31 -7 c17 -3 67 -6 110 -6z m727 0 c65 0 72 -2
72 -20 0 -18 -7 -20 -85 -20 l-85 0 0 -69 0 -68 -41 -7 c-23 -4 -44 -4 -47 -1
-3 3 4 5 16 5 21 0 22 4 22 96 l0 97 38 -7 c20 -3 70 -6 110 -6z m723 0 c72 0
79 -2 79 -20 0 -19 -7 -20 -90 -20 l-90 0 0 -70 c0 -53 -3 -70 -14 -70 -7 0
-29 -2 -47 -5 -27 -4 -29 -3 -9 3 24 8 25 11 22 70 -2 34 -1 76 3 93 6 28 10
31 37 25 17 -3 66 -6 109 -6z m727 0 c65 0 72 -2 72 -20 0 -18 -7 -20 -85 -20
-61 0 -85 -4 -86 -12 -1 -7 -2 -37 -3 -67 -1 -53 -2 -55 -34 -63 -19 -5 -41
-7 -50 -5 -10 3 -5 5 11 6 l27 1 0 96 0 97 38 -7 c20 -3 70 -6 110 -6z m723 0
c72 0 79 -2 79 -20 0 -19 -7 -20 -90 -20 l-90 0 0 -69 0 -69 -41 -7 c-22 -4
-43 -4 -46 -1 -4 3 6 6 20 6 l27 0 0 96 0 97 31 -7 c17 -3 67 -6 110 -6z m720
0 c72 0 79 -2 79 -20 0 -19 -7 -20 -90 -20 l-90 0 1 -66 c1 -36 -1 -67 -3 -69
-2 -2 -22 -6 -43 -8 -22 -2 -30 -2 -17 0 21 4 22 9 22 100 l0 96 31 -7 c17 -3
67 -6 110 -6z m730 0 c72 0 79 -2 79 -20 0 -19 -7 -20 -90 -20 l-90 0 0 -69 0
-69 -41 -7 c-22 -4 -43 -4 -46 -1 -4 3 5 6 18 6 24 0 24 1 21 81 -4 103 -1
113 39 105 18 -3 67 -6 110 -6z"/>
<path d="M459 3385 c-1 -3 -3 -9 -4 -15 -1 -5 -3 -14 -4 -20 0 -5 -10 -10 -21
-10 -19 0 -20 -9 -22 -312 -2 -172 -2 -328 0 -346 l3 -32 367 2 367 3 0 345
c0 322 -1 345 -17 344 -16 -2 -20 3 -17 22 0 4 -5 11 -13 15 -14 9 -637 13
-639 4z m636 -365 l0 -315 -315 0 -315 0 -3 318 -2 317 317 -2 318 -3 0 -315z"/>
<path d="M510 3265 c0 -22 4 -26 23 -23 14 2 22 10 22 23 0 13 -8 21 -22 23
-19 3 -23 -1 -23 -23z"/>
<path d="M1004 3275 c-8 -20 4 -35 27 -35 14 0 19 7 19 25 0 18 -5 25 -20 25
-11 0 -23 -7 -26 -15z"/>
<path d="M640 3220 c0 -13 -7 -20 -20 -20 -18 0 -20 -7 -20 -65 0 -58 2 -65
20 -65 15 0 20 -7 20 -25 0 -23 3 -25 50 -25 l50 0 0 65 0 65 46 0 45 0 -3
-42 c-2 -36 -7 -44 -25 -46 -15 -2 -23 -10 -23 -23 0 -12 -7 -19 -19 -19 -21
0 -31 -26 -24 -64 4 -17 12 -26 24 -26 28 0 25 -38 -4 -49 -20 -8 -22 -15 -19
-50 3 -32 8 -41 23 -41 12 0 19 -7 19 -20 0 -17 7 -20 45 -20 l45 0 0 45 c0
41 -2 45 -25 45 -18 0 -25 5 -25 20 0 15 7 20 25 20 23 0 25 4 25 45 l0 45 45
0 45 0 0 95 c0 95 0 95 -25 95 -18 0 -25 5 -25 20 0 13 -7 20 -20 20 -13 0
-20 7 -20 20 0 19 -7 20 -115 20 -108 0 -115 -1 -115 -20z"/>
<path d="M513 2783 c-3 -10 -8 -21 -10 -25 -2 -5 10 -8 26 -8 24 0 31 4 31 19
0 10 -7 22 -16 25 -22 9 -24 8 -31 -11z"/>
<path d="M1013 2793 c-7 -3 -13 -13 -13 -24 0 -14 7 -19 25 -19 18 0 25 5 25
19 0 20 -17 31 -37 24z"/>
<path d="M6223 2285 c0 -22 2 -30 4 -17 2 12 2 30 0 40 -3 9 -5 -1 -4 -23z"/>
<path d="M679 2294 c-5 -6 -6 -14 -2 -18 4 -4 -3 -9 -14 -12 -18 -5 -23 -15
-25 -53 -3 -38 -6 -46 -23 -46 -18 0 -20 -8 -23 -73 l-3 -73 48 3 c40 3 48 6
48 23 0 13 -8 21 -22 23 -20 3 -23 9 -23 48 0 40 2 44 25 44 23 0 25 -4 25
-46 l0 -45 42 3 c31 2 44 8 46 21 3 12 -3 17 -22 17 -21 0 -26 5 -26 25 0 19
5 25 21 25 12 0 23 8 26 20 4 16 14 20 49 20 l44 0 0 -40 c0 -33 3 -40 20 -40
17 0 20 7 20 40 l0 40 45 0 c45 0 45 0 51 -40 6 -40 7 -40 50 -40 40 0 44 -2
44 -25 0 -24 -2 -25 -70 -25 -63 0 -70 2 -70 20 0 13 -7 20 -20 20 -13 0 -20
-7 -20 -19 0 -13 -8 -21 -22 -23 -13 -2 -24 -11 -26 -20 -3 -14 7 -18 65 -20
61 -3 68 -5 71 -24 2 -12 12 -24 22 -27 23 -6 30 0 30 25 0 11 7 18 19 18 13
0 21 8 23 23 2 14 10 22 23 22 18 0 20 8 23 67 l3 67 -48 3 c-40 3 -48 6 -51
24 -3 23 -35 34 -93 34 -19 0 -29 5 -29 15 0 9 -7 18 -15 21 -29 11 -226 9
-236 -2z"/>
<path d="M3160 2278 c0 -18 5 -71 10 -118 5 -47 12 -122 15 -165 2 -44 7 -105
10 -135 3 -30 12 -120 20 -200 20 -205 28 -305 29 -380 0 -36 4 -67 8 -70 4
-3 9 -48 12 -100 2 -52 7 -102 10 -110 2 -8 7 -56 10 -107 4 -51 9 -99 12
-106 5 -13 34 -23 194 -68 36 -10 137 -38 225 -63 89 -25 173 -46 187 -46 27
0 51 6 218 53 47 13 155 43 240 67 85 23 158 46 161 49 4 3 10 49 13 101 8
105 8 106 36 405 10 116 22 244 25 285 3 41 12 140 20 220 8 80 17 186 20 235
3 50 8 101 11 115 3 14 6 57 7 95 l2 70 -747 3 -748 2 0 -32z m1350 -135 c-1
-16 -5 -73 -10 -128 -10 -108 -35 -390 -50 -569 -5 -61 -19 -210 -30 -331 -11
-121 -20 -223 -20 -227 0 -3 -24 -13 -52 -22 -72 -22 -421 -116 -430 -116 -4
0 -9 41 -10 91 l-3 92 -194 53 c-106 29 -195 55 -196 56 -4 4 -25 239 -25 277
l0 31 95 0 c68 0 97 -4 100 -12 2 -7 6 -43 10 -79 l6 -66 99 -27 c54 -14 102
-26 107 -26 4 0 7 63 5 140 l-3 140 -212 2 -212 3 -8 89 c-6 69 -5 91 5 97 7
5 106 9 221 9 l207 0 0 90 0 90 -230 0 -230 0 0 43 c0 23 -3 66 -6 95 l-7 52
237 0 236 0 0 90 0 90 300 0 300 0 0 -27z"/>
<path d="M4734 2299 c-3 -6 -1 -16 5 -22 8 -8 11 -5 11 11 0 24 -5 28 -16 11z"/>
<path d="M4741 2234 c0 -11 3 -14 6 -6 3 7 2 16 -1 19 -3 4 -6 -2 -5 -13z"/>
<path d="M6210 2220 c0 -5 5 -10 10 -10 6 0 10 5 10 10 0 6 -4 10 -10 10 -5 0
-10 -4 -10 -10z"/>
<path d="M4745 2180 c-3 -5 -1 -10 4 -10 6 0 11 5 11 10 0 6 -2 10 -4 10 -3 0
-8 -4 -11 -10z"/>
<path d="M6210 2164 c0 -8 5 -12 10 -9 6 4 8 11 5 16 -9 14 -15 11 -15 -7z"/>
<path d="M4746 2141 c-4 -7 -5 -15 -2 -18 9 -9 19 4 14 18 -4 11 -6 11 -12 0z"/>
<path d="M6211 2114 c0 -11 3 -14 6 -6 3 7 2 16 -1 19 -3 4 -6 -2 -5 -13z"/>
<path d="M4750 2074 c0 -8 5 -12 10 -9 6 3 10 10 10 16 0 5 -4 9 -10 9 -5 0
-10 -7 -10 -16z"/>
<path d="M6203 2045 c0 -27 2 -38 4 -22 2 15 2 37 0 50 -2 12 -4 0 -4 -28z"/>
<path d="M4750 2030 c0 -11 5 -20 10 -20 6 0 10 9 10 20 0 11 -4 20 -10 20 -5
0 -10 -9 -10 -20z"/>
<path d="M4764 1989 c-3 -6 -1 -16 5 -22 8 -8 11 -5 11 11 0 24 -5 28 -16 11z"/>
<path d="M518 1983 c-10 -2 -18 -13 -18 -23 0 -10 -8 -20 -18 -23 -11 -2 -21
-14 -25 -26 -4 -18 -1 -21 24 -21 22 0 29 -5 29 -19 0 -21 19 -31 56 -31 17 0
24 -6 24 -20 0 -13 -7 -20 -19 -20 -12 0 -21 -9 -25 -25 -4 -14 -10 -24 -14
-24 -16 3 -32 -2 -31 -8 4 -23 -3 -33 -21 -33 -17 0 -20 -7 -20 -51 0 -49 1
-50 28 -47 19 2 27 9 27 23 0 16 8 21 38 23 34 3 37 1 37 -22 l0 -26 95 0 c94
0 96 0 106 26 9 25 13 26 62 22 63 -6 77 -2 77 23 0 17 8 19 68 20 37 0 86 0
110 -1 l42 -2 0 122 0 121 -27 -3 c-25 -3 -28 -7 -31 -45 -3 -43 -3 -43 -43
-43 l-39 0 0 65 0 65 -224 0 c-123 0 -230 2 -238 4 -7 2 -21 2 -30 -1z m352
-163 c0 -13 -7 -20 -20 -20 -13 0 -20 7 -20 20 0 13 7 20 20 20 13 0 20 -7 20
-20z m130 0 c0 -13 -7 -20 -20 -20 -13 0 -20 7 -20 20 0 13 7 20 20 20 13 0
20 -7 20 -20z"/>
<path d="M6192 1965 c0 -16 2 -22 5 -12 2 9 2 23 0 30 -3 6 -5 -1 -5 -18z"/>
<path d="M4760 1930 c0 -5 5 -10 10 -10 6 0 10 5 10 10 0 6 -4 10 -10 10 -5 0
-10 -4 -10 -10z"/>
<path d="M6190 1909 c0 -11 5 -17 10 -14 6 3 10 13 10 21 0 8 -4 14 -10 14 -5
0 -10 -9 -10 -21z"/>
<path d="M4765 1880 c-3 -5 -1 -10 4 -10 6 0 11 5 11 10 0 6 -2 10 -4 10 -3 0
-8 -4 -11 -10z"/>
<path d="M6183 1835 c0 -27 2 -38 4 -22 2 15 2 37 0 50 -2 12 -4 0 -4 -28z"/>
<path d="M4770 1830 c0 -5 5 -10 10 -10 6 0 10 5 10 10 0 6 -4 10 -10 10 -5 0
-10 -4 -10 -10z"/>
<path d="M6173 1730 c0 -25 2 -35 4 -22 2 12 2 32 0 45 -2 12 -4 2 -4 -23z"/>
<path d="M4785 1731 c-3 -5 -1 -12 5 -16 5 -3 10 1 10 9 0 18 -6 21 -15 7z"/>
<path d="M4785 1681 c-3 -5 -1 -12 5 -16 5 -3 10 1 10 9 0 18 -6 21 -15 7z"/>
<path d="M6160 1660 c0 -5 5 -10 11 -10 5 0 7 5 4 10 -3 6 -8 10 -11 10 -2 0
-4 -4 -4 -10z"/>
<path d="M4790 1620 c0 -5 5 -10 11 -10 5 0 7 5 4 10 -3 6 -8 10 -11 10 -2 0
-4 -4 -4 -10z"/>
<path d="M6160 1605 c0 -8 2 -15 4 -15 2 0 6 7 10 15 3 8 1 15 -4 15 -6 0 -10
-7 -10 -15z"/>
<path d="M4790 1570 c0 -5 5 -10 10 -10 6 0 10 5 10 10 0 6 -4 10 -10 10 -5 0
-10 -4 -10 -10z"/>
<path d="M6161 1554 c0 -11 3 -14 6 -6 3 7 2 16 -1 19 -3 4 -6 -2 -5 -13z"/>
<path d="M4800 1514 c0 -8 5 -12 10 -9 6 3 10 10 10 16 0 5 -4 9 -10 9 -5 0
-10 -7 -10 -16z"/>
<path d="M6151 1504 c0 -11 3 -14 6 -6 3 7 2 16 -1 19 -3 4 -6 -2 -5 -13z"/>
<path d="M4800 1470 c0 -19 3 -21 12 -12 9 9 9 15 0 24 -9 9 -12 7 -12 -12z"/>
<path d="M6151 1454 c0 -11 3 -14 6 -6 3 7 2 16 -1 19 -3 4 -6 -2 -5 -13z"/>
<path d="M4810 1425 c0 -8 5 -15 10 -15 6 0 10 7 10 15 0 8 -4 15 -10 15 -5 0
-10 -7 -10 -15z"/>
<path d="M6142 1405 c0 -16 2 -22 5 -12 2 9 2 23 0 30 -3 6 -5 -1 -5 -18z"/>
<path d="M4810 1376 c0 -9 5 -16 10 -16 6 0 10 4 10 9 0 6 -4 13 -10 16 -5 3
-10 -1 -10 -9z"/>
<path d="M6142 1350 c0 -14 2 -19 5 -12 2 6 2 18 0 25 -3 6 -5 1 -5 -13z"/>
<path d="M6131 1304 c0 -11 3 -14 6 -6 3 7 2 16 -1 19 -3 4 -6 -2 -5 -13z"/>
<path d="M4820 1265 c0 -8 5 -15 10 -15 6 0 10 7 10 15 0 8 -4 15 -10 15 -5 0
-10 -7 -10 -15z"/>
<path d="M6130 1251 c0 -25 6 -27 13 -6 4 8 2 17 -3 20 -6 4 -10 -3 -10 -14z"/>
<path d="M4825 1220 c-3 -5 -1 -10 4 -10 6 0 11 5 11 10 0 6 -2 10 -4 10 -3 0
-8 -4 -11 -10z"/>
<path d="M6123 1170 c0 -25 2 -35 4 -22 2 12 2 32 0 45 -2 12 -4 2 -4 -23z"/>
<path d="M4830 1170 c0 -5 5 -10 10 -10 6 0 10 5 10 10 0 6 -4 10 -10 10 -5 0
-10 -4 -10 -10z"/>
<path d="M6110 1104 c0 -8 5 -12 10 -9 6 4 8 11 5 16 -9 14 -15 11 -15 -7z"/>
<path d="M4840 1066 c0 -9 5 -16 10 -16 6 0 10 4 10 9 0 6 -4 13 -10 16 -5 3
-10 -1 -10 -9z"/>
<path d="M6110 1049 c0 -5 5 -7 10 -4 6 3 10 8 10 11 0 2 -4 4 -10 4 -5 0 -10
-5 -10 -11z"/>
<path d="M4845 1020 c-3 -5 -1 -10 4 -10 6 0 11 5 11 10 0 6 -2 10 -4 10 -3 0
-8 -4 -11 -10z"/>
<path d="M6105 1000 c-3 -5 -1 -10 4 -10 6 0 11 5 11 10 0 6 -2 10 -4 10 -3 0
-8 -4 -11 -10z"/>
<path d="M4850 970 c0 -5 5 -10 11 -10 5 0 7 5 4 10 -3 6 -8 10 -11 10 -2 0
-4 -4 -4 -10z"/>
<path d="M6100 926 c0 -26 3 -45 8 -42 9 5 7 74 -2 83 -3 4 -6 -15 -6 -41z"/>
<path d="M4850 915 c0 -8 5 -15 10 -15 6 0 10 7 10 15 0 8 -4 15 -10 15 -5 0
-10 -7 -10 -15z"/>
<path d="M4860 860 c0 -19 3 -21 12 -12 9 9 9 15 0 24 -9 9 -12 7 -12 -12z"/>
<path d="M4860 816 c0 -8 5 -18 10 -21 6 -3 10 1 10 9 0 8 -4 18 -10 21 -5 3
-10 -1 -10 -9z"/>
<path d="M6002 766 c-34 -12 -60 -25 -56 -28 3 -4 13 -4 22 -1 11 5 14 2 9
-10 -5 -14 0 -17 23 -17 23 0 30 5 30 20 0 13 9 22 25 26 14 3 25 12 25 20 0
17 0 17 -78 -10z"/>
<path d="M4888 773 c7 -3 16 -2 19 1 4 3 -2 6 -13 5 -11 0 -14 -3 -6 -6z"/>
<path d="M4949 756 c7 -9 25 -16 40 -16 29 1 17 11 -29 25 -22 7 -23 6 -11 -9z"/>
<path d="M5068 723 c7 -3 16 -2 19 1 4 3 -2 6 -13 5 -11 0 -14 -3 -6 -6z"/>
<path d="M5110 710 c8 -5 26 -9 40 -9 23 0 23 1 5 9 -11 5 -29 9 -40 9 -17 1
-17 -1 -5 -9z"/>
<path d="M5825 710 c-19 -8 -19 -9 3 -9 12 -1 22 4 22 9 0 6 -1 10 -2 9 -2 0
-12 -4 -23 -9z"/>
<path d="M5738 683 c7 -3 16 -2 19 1 4 3 -2 6 -13 5 -11 0 -14 -3 -6 -6z"/>
<path d="M5640 660 c-12 -8 -11 -10 5 -9 11 1 31 5 45 9 24 8 24 8 -5 9 -16 0
-37 -4 -45 -9z"/>
<path d="M5301 656 c2 -2 18 -6 34 -10 22 -5 26 -4 15 4 -14 9 -59 15 -49 6z"/>
<path d="M5370 640 c0 -5 7 -10 16 -10 8 0 12 5 9 10 -3 6 -10 10 -16 10 -5 0
-9 -4 -9 -10z"/>
<path d="M5598 643 c7 -3 16 -2 19 1 4 3 -2 6 -13 5 -11 0 -14 -3 -6 -6z"/>
<path d="M5480 620 l-45 -7 40 -1 c22 -1 47 3 55 8 8 5 11 9 5 8 -5 0 -30 -4
-55 -8z"/>
<path d="M4130 3264 c0 -21 4 -25 23 -22 14 2 23 11 25 26 3 18 -1 22 -22 22
-21 0 -26 -5 -26 -26z"/>
<path d="M4630 3264 c0 -21 4 -25 23 -22 14 2 23 11 25 26 3 18 -1 22 -22 22
-21 0 -26 -5 -26 -26z"/>
<path d="M4270 3220 c0 -15 -7 -20 -25 -20 -24 0 -25 -2 -25 -64 0 -59 2 -65
23 -68 14 -2 23 -11 25 -25 3 -20 9 -23 48 -23 l44 0 0 -45 c0 -38 3 -45 20
-45 15 0 20 -7 20 -25 0 -18 -5 -25 -20 -25 -17 0 -20 -7 -20 -45 0 -38 3 -45
20 -45 13 0 20 -7 20 -20 0 -17 7 -20 51 -20 l50 0 -3 43 c-2 35 -7 43 -25 45
-15 2 -23 10 -23 22 0 12 8 20 23 22 18 2 23 10 25 45 3 42 3 42 45 45 l42 3
0 90 c0 84 -1 90 -21 93 -12 2 -24 12 -27 23 -3 11 -14 19 -26 19 -14 0 -21 6
-21 20 0 19 -7 20 -110 20 -103 0 -110 -1 -110 -20z m178 -112 c-2 -36 -7 -44
-25 -46 -15 -2 -23 -10 -23 -23 0 -12 -7 -19 -20 -19 -18 0 -20 7 -20 65 l0
65 46 0 45 0 -3 -42z"/>
<path d="M4148 2793 c-10 -3 -18 -13 -18 -24 0 -14 7 -19 25 -19 18 0 25 5 25
19 0 23 -8 29 -32 24z"/>
<path d="M4643 2793 c-7 -3 -13 -13 -13 -24 0 -14 7 -19 25 -19 18 0 25 5 25
19 0 20 -17 31 -37 24z"/>
<path d="M5580 3264 c0 -21 4 -25 23 -22 14 2 23 11 25 26 3 18 -1 22 -22 22
-21 0 -26 -5 -26 -26z"/>
<path d="M6080 3265 c0 -22 4 -26 23 -23 14 2 22 10 22 23 0 13 -8 21 -22 23
-19 3 -23 -1 -23 -23z"/>
<path d="M5720 3221 c0 -13 -8 -21 -22 -23 -21 -3 -23 -9 -26 -65 -3 -57 -1
-63 17 -63 13 0 21 -8 23 -22 2 -19 11 -24 48 -28 45 -5 45 -5 48 -47 3 -35 7
-43 23 -43 26 0 26 -40 -1 -47 -16 -4 -20 -14 -20 -45 0 -31 4 -41 20 -45 11
-3 20 -14 20 -24 0 -16 8 -19 48 -19 52 0 52 0 43 78 0 6 -12 12 -25 12 -31 0
-29 34 2 38 17 3 22 11 24 45 3 42 3 42 46 45 l42 3 0 95 c0 85 -2 94 -19 94
-10 0 -21 9 -24 20 -3 12 -14 20 -26 20 -14 0 -21 6 -21 20 0 19 -7 20 -110
20 -102 0 -110 -1 -110 -19z m178 -113 c-2 -36 -7 -44 -25 -46 -15 -2 -23 -10
-23 -23 0 -12 -7 -19 -20 -19 -18 0 -20 7 -20 65 l0 65 46 0 45 0 -3 -42z"/>
<path d="M6076 2784 c-8 -21 1 -34 24 -34 26 0 33 28 10 40 -25 13 -27 13 -34
-6z"/>
<path d="M5580 2770 c0 -15 7 -20 25 -20 18 0 25 5 25 20 0 15 -7 20 -25 20
-18 0 -25 -5 -25 -20z"/>
<path d="M2762 1380 c0 -38 5 -70 9 -70 4 0 7 31 6 70 -1 38 -5 70 -9 70 -4 0
-7 -31 -6 -70z"/>
</g>
</svg>
