<?xml version="1.0" standalone="no"?>
<!DOCTYPE svg PUBLIC "-//W3C//DTD SVG 20010904//EN"
 "http://www.w3.org/TR/2001/REC-SVG-20010904/DTD/svg10.dtd">
<svg version="1.0" xmlns="http://www.w3.org/2000/svg"
 width="256.000000pt" height="256.000000pt" viewBox="0 0 256.000000 256.000000"
 preserveAspectRatio="xMidYMid meet">

<g transform="translate(0.000000,256.000000) scale(0.100000,-0.100000)"
fill="#000000" stroke="none">
<path d="M0 1280 l0 -1280 1280 0 1280 0 0 1280 0 1280 -1280 0 -1280 0 0
-1280z m1770 575 c0 -33 2 -35 35 -35 33 0 35 -2 35 -35 l0 -35 -105 0 -105 0
0 35 c0 33 2 35 35 35 33 0 35 2 35 35 0 33 2 35 35 35 33 0 35 -2 35 -35z
m140 -385 l0 -70 35 0 35 0 0 -105 0 -105 -140 0 -140 0 0 35 0 35 -70 0 -70
0 0 -35 c0 -33 -2 -35 -35 -35 -33 0 -35 -2 -35 -35 l0 -35 70 0 70 0 0 -35 0
-35 140 0 140 0 0 -35 0 -35 -245 0 -245 0 0 35 c0 33 -2 35 -35 35 -33 0 -35
2 -35 35 0 33 -2 35 -35 35 -33 0 -35 2 -35 35 l0 35 -70 0 -70 0 0 35 c0 33
-2 35 -35 35 l-35 0 0 70 0 70 35 0 c33 0 35 2 35 35 l0 35 70 0 70 0 0 -105
0 -105 35 0 c33 0 35 -2 35 -35 0 -33 2 -35 35 -35 33 0 35 2 35 35 0 33 2 35
35 35 33 0 35 2 35 35 0 33 -2 35 -35 35 l-35 0 0 70 0 70 35 0 c33 0 35 2 35
35 l0 35 210 0 210 0 0 -70z m-840 -595 l0 -35 -70 0 -70 0 0 -35 0 -35 -70 0
-70 0 0 -35 0 -35 -105 0 -105 0 0 35 c0 33 -2 35 -35 35 -33 0 -35 2 -35 35
0 33 -2 35 -35 35 -33 0 -35 2 -35 35 l0 35 315 0 315 0 0 -35z m840 0 c0 -33
2 -35 35 -35 l35 0 0 -70 0 -70 -35 0 c-33 0 -35 -2 -35 -35 0 -33 2 -35 35
-35 33 0 35 -2 35 -35 0 -33 -2 -35 -35 -35 -33 0 -35 2 -35 35 l0 35 -105 0
-105 0 0 35 c0 33 -2 35 -35 35 l-35 0 0 70 0 70 35 0 c33 0 35 2 35 35 l0 35
105 0 105 0 0 -35z m-70 -385 l0 -70 -70 0 -70 0 0 -35 0 -35 -70 0 -70 0 0
35 c0 33 -2 35 -35 35 -33 0 -35 2 -35 35 l0 35 70 0 70 0 0 35 0 35 105 0
105 0 0 -70z m-70 -385 c0 -33 -2 -35 -35 -35 -33 0 -35 2 -35 35 0 33 2 35
35 35 33 0 35 -2 35 -35z m140 0 c0 -33 -2 -35 -35 -35 -33 0 -35 2 -35 35 0
33 2 35 35 35 33 0 35 -2 35 -35z"/>
<path d="M1630 1400 l0 -70 35 0 35 0 0 70 0 70 -35 0 -35 0 0 -70z"/>
<path d="M1770 1400 l0 -70 35 0 35 0 0 70 0 70 -35 0 -35 0 0 -70z"/>
<path d="M1140 1330 l0 -70 35 0 35 0 0 70 0 70 -35 0 -35 0 0 -70z"/>
</g>
</svg>
