<?xml version="1.0" standalone="no"?>
<!DOCTYPE svg PUBLIC "-//W3C//DTD SVG 20010904//EN"
 "http://www.w3.org/TR/2001/REC-SVG-20010904/DTD/svg10.dtd">
<svg version="1.0" xmlns="http://www.w3.org/2000/svg"
 width="293.000000pt" height="375.000000pt" viewBox="0 0 293.000000 375.000000"
 preserveAspectRatio="xMidYMid meet">

<g transform="translate(0.000000,375.000000) scale(0.100000,-0.100000)"
fill="#000000" stroke="none">
<path d="M0 3020 l0 -730 55 0 54 0 3 -57 3 -58 58 -3 57 -3 0 -1084 0 -1085
55 0 55 0 0 1085 0 1085 115 0 115 0 0 -1085 0 -1085 110 0 110 0 0 1085 0
1085 225 0 225 0 0 -1085 0 -1085 334 0 c325 0 334 1 339 20 4 17 14 20 62 20
l56 0 -3 53 -3 52 -57 3 -58 3 0 54 0 55 60 0 60 0 0 -55 0 -55 55 0 55 0 0
-55 0 -55 55 0 55 0 0 55 0 55 -55 0 -55 0 0 55 0 55 55 0 55 0 0 55 0 55 -55
0 -55 0 0 55 0 55 -55 0 -55 0 0 -55 0 -55 -60 0 -61 0 3 58 3 57 58 3 58 3
-3 52 -3 52 -57 3 -58 3 0 54 0 55 60 0 60 0 0 -55 0 -55 55 0 55 0 0 -55 0
-55 55 0 55 0 0 55 0 55 -55 0 -55 0 0 55 0 55 55 0 55 0 0 55 0 55 -55 0 -55
0 0 55 0 55 -55 0 -55 0 0 -55 0 -55 -60 0 -61 0 3 58 3 57 58 3 58 3 -3 52
-3 52 -57 3 -58 3 0 54 0 55 60 0 60 0 0 -55 0 -55 55 0 55 0 0 -55 0 -55 55
0 55 0 0 55 0 55 -55 0 -55 0 0 55 0 55 55 0 55 0 0 55 0 55 -55 0 -55 0 0 55
0 55 -55 0 -55 0 0 -55 0 -55 -60 0 -61 0 3 58 3 57 58 3 58 3 -3 52 -3 52
-57 3 -58 3 0 54 0 55 60 0 60 0 0 -55 0 -55 55 0 55 0 0 -55 0 -55 55 0 55 0
0 55 0 55 -55 0 -55 0 0 55 0 55 55 0 55 0 0 55 0 55 -55 0 -55 0 0 55 0 55
-55 0 -55 0 0 -55 0 -55 -60 0 -61 0 3 58 3 57 58 3 58 3 -3 52 -3 52 -57 3
-58 3 0 54 0 54 58 3 57 3 0 53 0 52 58 0 57 0 0 -55 0 -55 -55 0 -55 0 0 -55
0 -55 55 0 55 0 0 -55 0 -55 55 0 55 0 0 55 0 55 -55 0 -55 0 0 55 0 55 55 0
55 0 0 55 0 55 115 0 115 0 0 -1085 0 -1085 110 0 110 0 0 1085 0 1085 55 0
54 0 3 58 3 57 58 3 57 3 0 729 0 730 -1465 0 -1465 0 0 -730z m2810 558 l0
-58 -897 0 -898 0 3 -560 2 -560 -230 0 -230 0 0 560 0 560 -222 2 -223 3 -3
44 c-2 24 -1 48 1 55 3 8 355 11 1351 11 l1346 0 0 -57z m-2470 -673 l0 -505
-115 0 -115 0 0 505 0 505 115 0 115 0 0 -505z m1010 0 l0 -505 -115 0 -115 0
0 505 0 505 115 0 115 0 0 -505z m900 450 l0 -55 55 0 55 0 0 55 0 55 170 0
170 0 0 -505 0 -505 -170 0 -170 0 0 55 0 55 -55 0 -55 0 0 -55 0 -55 -55 0
-55 0 0 55 0 55 55 0 55 0 0 55 0 55 -55 0 -55 0 0 60 0 60 55 0 55 0 0 55 0
55 -55 0 -55 0 0 55 0 55 55 0 55 0 0 55 0 55 -55 0 -55 0 0 60 0 60 55 0 55
0 0 55 0 55 -55 0 -55 0 0 55 0 55 55 0 55 0 0 -55z m-110 -1690 l0 -55 -55 0
-55 0 0 55 0 55 55 0 55 0 0 -55z m0 -450 l0 -55 -55 0 -55 0 0 55 0 55 55 0
55 0 0 -55z m0 -450 l0 -55 -55 0 -55 0 0 55 0 55 55 0 55 0 0 -55z m0 -450
l0 -55 -55 0 -55 0 0 55 0 55 55 0 55 0 0 -55z"/>
<path d="M2370 3246 l0 -56 56 0 55 0 -3 53 -3 52 -52 3 -53 3 0 -55z"/>
<path d="M2252 3128 l3 -53 53 -3 52 -3 0 55 0 56 -56 0 -55 0 3 -52z"/>
<path d="M2370 3014 l0 -55 53 3 52 3 3 53 3 52 -55 0 -56 0 0 -56z"/>
<path d="M2250 2905 l0 -55 55 0 55 0 0 55 0 55 -55 0 -55 0 0 -55z"/>
<path d="M2370 2796 l0 -56 56 0 55 0 -3 53 -3 52 -52 3 -53 3 0 -55z"/>
<path d="M2252 2678 l3 -53 53 -3 52 -3 0 55 0 56 -56 0 -55 0 3 -52z"/>
<path d="M2370 2564 l0 -55 53 3 52 3 3 53 3 52 -55 0 -56 0 0 -56z"/>
<path d="M2030 15 c0 -12 13 -15 55 -15 42 0 55 3 55 15 0 12 -13 15 -55 15
-42 0 -55 -3 -55 -15z"/>
</g>
</svg>
